<?xml version="1.0" encoding="UTF-8" standalone="no"?>
<svg width="13px" height="12px" viewBox="0 0 13 12" version="1.1" xmlns="http://www.w3.org/2000/svg" xmlns:xlink="http://www.w3.org/1999/xlink">
    <!-- Generator: Sketch 44.1 (41455) - http://www.bohemiancoding.com/sketch -->
    <title>i-woman</title>
    <desc>Created with Sketch.</desc>
    <defs></defs>
    <g id="Symbols" stroke="none" stroke-width="1" fill="none" fill-rule="evenodd">
        <path d="M6.63172798,8.63172798 L6.63172798,7.10403172 C5.65192597,6.99512204 4.70105327,6.5650143 3.94974747,5.8137085 C2.19238816,4.05634919 2.19238816,1.20710678 3.94974747,-0.550252532 C5.70710678,-2.30761184 8.55634919,-2.30761184 10.3137085,-0.550252532 C12.0710678,1.20710678 12.0710678,4.05634919 10.3137085,5.8137085 C9.56240269,6.5650143 8.61153,6.99512204 7.63172798,7.10403172 L7.63172798,8.63172798 L9.63172798,8.63172798 C9.90787036,8.63172798 10.131728,8.85558561 10.131728,9.13172798 C10.131728,9.40787036 9.90787036,9.63172798 9.63172798,9.63172798 L7.63172798,9.63172798 L7.63172798,11.631728 L7.63172798,11.631728 C7.63172798,11.9078704 7.40787036,12.131728 7.13172798,12.131728 C6.85558561,12.131728 6.63172798,11.9078704 6.63172798,11.631728 L6.63172798,9.63172798 L4.63172798,9.63172798 L4.63172798,9.63172798 C4.35558561,9.63172798 4.13172798,9.40787036 4.13172798,9.13172798 C4.13172798,8.85558561 4.35558561,8.63172798 4.63172798,8.63172798 L6.63172798,8.63172798 Z M9.60660172,5.10660172 C10.9734367,3.7397667 10.9734367,1.52368927 9.60660172,0.15685425 C8.2397667,-1.20998077 6.02368927,-1.20998077 4.65685425,0.15685425 C3.29001923,1.52368927 3.29001923,3.7397667 4.65685425,5.10660172 C6.02368927,6.47343674 8.2397667,6.47343674 9.60660172,5.10660172 Z" id="i-woman" fill="#FF788B" transform="translate(7.131728, 5.131728) rotate(-135.000000) translate(-7.131728, -5.131728) "></path>
    </g>
</svg>