<?xml version="1.0" encoding="UTF-8" standalone="no"?>
<svg width="13px" height="12px" viewBox="0 0 13 12" version="1.1" xmlns="http://www.w3.org/2000/svg" xmlns:xlink="http://www.w3.org/1999/xlink">
    <!-- Generator: Sketch 44.1 (41455) - http://www.bohemiancoding.com/sketch -->
    <title>i-man</title>
    <desc>Created with Sketch.</desc>
    <defs></defs>
    <g id="Symbols" stroke="none" stroke-width="1" fill="none" fill-rule="evenodd">
        <path d="M6.65056688,10.2297623 L6.65056688,7.09622839 C5.67076486,6.98731872 4.71989217,6.55721098 3.96858636,5.80590517 C2.21122705,4.04854586 2.21122705,1.19930346 3.96858636,-0.558055857 C5.72594568,-2.31541517 8.57518808,-2.31541517 10.3325474,-0.558055857 C12.0899067,1.19930346 12.0899067,4.04854586 10.3325474,5.80590517 C9.58124159,6.55721098 8.63036889,6.98731872 7.65056688,7.09622839 L7.65056688,10.2962288 L10.3657806,7.58101502 C10.5610428,7.38575287 10.8776252,7.38575287 11.0728874,7.58101502 C11.2681495,7.77627717 11.2681495,8.09285966 11.0728874,8.2881218 L7.1838001,12.1772091 L3.2947128,8.2881218 C3.09945066,8.09285966 3.09945066,7.77627717 3.2947128,7.58101502 C3.48997495,7.38575287 3.80655744,7.38575287 4.00181958,7.58101502 L6.65056688,10.2297623 Z M9.62544061,5.09879839 C10.9922756,3.73196337 10.9922756,1.51588594 9.62544061,0.149050924 C8.25860559,-1.2177841 6.04252817,-1.2177841 4.67569314,0.149050924 C3.30885812,1.51588594 3.30885812,3.73196337 4.67569314,5.09879839 C6.04252817,6.46563341 8.25860559,6.46563341 9.62544061,5.09879839 Z" id="i-man" fill="#1B77D9" transform="translate(7.150567, 5.150567) rotate(-135.000000) translate(-7.150567, -5.150567) "></path>
    </g>
</svg>