<?xml version="1.0" encoding="UTF-8" standalone="no"?>
<svg width="13px" height="13px" viewBox="0 0 13 13" version="1.1" xmlns="http://www.w3.org/2000/svg" xmlns:xlink="http://www.w3.org/1999/xlink">
    <!-- Generator: Sketch 44.1 (41455) - http://www.bohemiancoding.com/sketch -->
    <title>i-unknow</title>
    <desc>Created with Sketch.</desc>
    <defs></defs>
    <g id="Symbols" stroke="none" stroke-width="1" fill="none" fill-rule="evenodd">
        <path d="M6.5,13 C2.91014913,13 0,10.0898509 0,6.5 C0,2.91014913 2.91014913,0 6.5,0 C10.0898509,0 13,2.91014913 13,6.5 C13,10.0898509 10.0898509,13 6.5,13 Z M6.5,12 C9.53756612,12 12,9.53756612 12,6.5 C12,3.46243388 9.53756612,1 6.5,1 C3.46243388,1 1,3.46243388 1,6.5 C1,9.53756612 3.46243388,12 6.5,12 Z M6.63893889,2.5596762 C7.36423038,2.5596762 7.94219703,2.75233175 8.38417153,3.16030822 C8.80348068,3.54561932 9.01880159,4.07825526 9.01880159,4.75821603 C9.01880159,5.26818661 8.87147675,5.71016111 8.58815977,6.08413953 C8.47483297,6.22013169 8.16885062,6.51478136 7.67021272,6.95675586 C7.42089377,7.17207677 7.25090358,7.376065 7.13757679,7.58005323 C6.99025195,7.82937218 6.92225588,8.10135649 6.92225588,8.40733884 L6.92225588,8.66799047 L6.01564151,8.66799047 L6.01564151,8.40733884 C6.01564151,8.03336041 6.08363759,7.70471271 6.21962974,7.42139572 C6.37828726,7.08141533 6.75226568,6.65077351 7.36423038,6.10680489 C7.54555325,5.92548202 7.6815454,5.78948987 7.74954148,5.69882843 C7.97619507,5.41551144 8.08952187,5.12086177 8.08952187,4.80354675 C8.08952187,4.35023957 7.95352971,3.9989265 7.70421076,3.74960755 C7.44355913,3.47762324 7.06958071,3.35296377 6.59360817,3.35296377 C6.02697419,3.35296377 5.60766505,3.53428664 5.33568074,3.90826506 C5.08636179,4.22558009 4.96170232,4.65622191 4.96170232,5.21152321 L4.06642063,5.21152321 C4.06642063,4.41823564 4.28174155,3.78360559 4.73504873,3.30763305 C5.18835591,2.80899515 5.82298596,2.5596762 6.63893889,2.5596762 Z M6.47688889,9.04655556 C6.305,9.04655556 6.16344444,9.09711111 6.04211111,9.21844444 C5.92077778,9.32966667 5.87022222,9.47122222 5.87022222,9.64311111 C5.87022222,9.815 5.92077778,9.95655556 6.04211111,10.0778889 C6.16344444,10.1891111 6.305,10.2497778 6.47688889,10.2497778 C6.64877778,10.2497778 6.79033333,10.1891111 6.91166667,10.0778889 C7.033,9.96666667 7.09366667,9.82511111 7.09366667,9.64311111 C7.09366667,9.47122222 7.033,9.32966667 6.92177778,9.21844444 C6.80044444,9.09711111 6.64877778,9.04655556 6.47688889,9.04655556 Z" id="i-unknow" fill="#1C77D9"></path>
    </g>
</svg>