<svg width="18" height="17" viewBox="0 0 18 17" xmlns="http://www.w3.org/2000/svg"><title>i-list1</title><path d="M6 .5c0-.276.229-.5.5-.5h11c.276 0 .5.232.5.5 0 .276-.229.5-.5.5h-11A.505.505 0 0 1 6 .5zm0 8c0-.276.229-.5.5-.5h11c.276 0 .5.232.5.5 0 .276-.229.5-.5.5h-11a.505.505 0 0 1-.5-.5zm0 8c0-.276.229-.5.5-.5h11c.276 0 .5.232.5.5 0 .276-.229.5-.5.5h-11a.505.505 0 0 1-.5-.5zM0 .5C0 .224.215 0 .49 0h3.02A.5.5 0 0 1 4 .5c0 .276-.215.5-.49.5H.49A.5.5 0 0 1 0 .5zm0 8c0-.276.215-.5.49-.5h3.02a.5.5 0 0 1 .49.5c0 .276-.215.5-.49.5H.49A.5.5 0 0 1 0 8.5zm0 8c0-.276.215-.5.49-.5h3.02a.5.5 0 0 1 .49.5c0 .276-.215.5-.49.5H.49a.5.5 0 0 1-.49-.5z" fill="#3ED086" fill-rule="evenodd"/></svg>