<svg width="18" height="18" viewBox="0 0 18 18" xmlns="http://www.w3.org/2000/svg"><title>i-card</title><path d="M.5 1.001V6.2c0 .275.225.501.501.501H6.2a.503.503 0 0 0 .501-.501V1a.503.503 0 0 0-.502-.5H1a.503.503 0 0 0-.501.501zm0 10.8V17c0 .275.225.501.501.501H6.2A.503.503 0 0 0 6.701 17v-5.2a.503.503 0 0 0-.501-.501H1a.503.503 0 0 0-.501.501zm10.8-10.8V6.2c0 .275.225.501.501.501H17a.503.503 0 0 0 .501-.501V1a.503.503 0 0 0-.502-.5H11.8a.503.503 0 0 0-.501.501zm0 10.8V17c0 .275.225.501.501.501H17a.503.503 0 0 0 .501-.501v-5.2a.503.503 0 0 0-.501-.501h-5.2a.503.503 0 0 0-.501.501z" stroke="#3ED086" fill="none"/></svg>