<?xml version="1.0" encoding="UTF-8"?>
<svg width="10px" height="13px" viewBox="0 0 10 13" version="1.1" xmlns="http://www.w3.org/2000/svg" xmlns:xlink="http://www.w3.org/1999/xlink">
    <!-- Generator: Sketch 49 (51002) - http://www.bohemiancoding.com/sketch -->
    <title>Combined Shape Copy 7</title>
    <desc>Created with Sketch.</desc>
    <defs></defs>
    <g id="Page-1" stroke="none" stroke-width="1" fill="none" fill-rule="evenodd">
        <path d="M4.26330272,11.8219941 L0.310006299,8.05340439 C-0.089744949,7.6723304 -0.104885859,7.03934648 0.27618813,6.63959523 C0.657262119,6.23984399 1.29024604,6.22470308 1.68999729,6.60577707 L4.00000179,8.80785307 L4,0.999997264 C4.00000148,0.447713772 4.44771616,0 5,0 C5.55228475,0 6,0.44771525 6,1 L6,8.80785307 L8.31000451,6.60577707 C8.70975575,6.22470308 9.34273967,6.23984399 9.72381366,6.63959523 C10.1048877,7.03934648 10.0897467,7.6723304 9.68999549,8.05340439 L5.73669907,11.8219941 C5.68951765,11.8724931 5.63733702,11.9177369 5.58129132,11.9572397 C5.40196168,12.0874226 5.19912864,12.1460146 5.0000009,12.1446692 C4.80087315,12.1460146 4.59804011,12.0874226 4.41871047,11.9572397 C4.36266477,11.9177369 4.31048415,11.8724931 4.26330272,11.8219941 Z" id="Combined-Shape-Copy-7" fill="#009EF9" fill-rule="nonzero"></path>
    </g>
</svg>