<?xml version="1.0" encoding="UTF-8" standalone="no"?>
<svg width="13px" height="15px" viewBox="0 0 13 15" version="1.1" xmlns="http://www.w3.org/2000/svg" xmlns:xlink="http://www.w3.org/1999/xlink">
    <!-- Generator: Sketch 44.1 (41455) - http://www.bohemiancoding.com/sketch -->
    <title>i-3</title>
    <desc>Created with Sketch.</desc>
    <defs></defs>
    <g id="Symbols" stroke="none" stroke-width="1" fill="none" fill-rule="evenodd">
        <g id="i-3">
            <path d="M4,12.1058377 L4,8.97230373 C3.02019798,8.86339406 2.06932529,8.43328632 1.31801948,7.68198052 C-0.439339828,5.9246212 -0.439339828,3.0753788 1.31801948,1.31801948 C3.0753788,-0.439339828 5.9246212,-0.439339828 7.68198052,1.31801948 C9.43933983,3.0753788 9.43933983,5.9246212 7.68198052,7.68198052 C6.93067471,8.43328632 5.97980202,8.86339406 5,8.97230373 L5,12.1723041 L7.71521373,9.45709036 C7.91047588,9.26182822 8.22705837,9.26182822 8.42232052,9.45709036 C8.61758266,9.65235251 8.61758266,9.968935 8.42232052,10.1641971 L4.53323322,14.0532844 L0.644145923,10.1641971 C0.448883777,9.968935 0.448883777,9.65235251 0.644145923,9.45709036 C0.839408069,9.26182822 1.15599056,9.26182822 1.3512527,9.45709036 L4,12.1058377 Z M6.97487373,6.97487373 C8.34170876,5.60803871 8.34170876,3.39196129 6.97487373,2.02512627 C5.60803871,0.658291245 3.39196129,0.658291245 2.02512627,2.02512627 C0.658291245,3.39196129 0.658291245,5.60803871 2.02512627,6.97487373 C3.39196129,8.34170876 5.60803871,8.34170876 6.97487373,6.97487373 Z" id="Combined-Shape-Copy-3" fill="#1B77D9" transform="translate(4.500000, 7.026642) rotate(-180.000000) translate(-4.500000, -7.026642) "></path>
            <path d="M8,10.5 L8,8.97230373 C7.02019798,8.86339406 6.06932529,8.43328632 5.31801948,7.68198052 C3.56066017,5.9246212 3.56066017,3.0753788 5.31801948,1.31801948 C7.0753788,-0.439339828 9.9246212,-0.439339828 11.6819805,1.31801948 C13.4393398,3.0753788 13.4393398,5.9246212 11.6819805,7.68198052 C10.9306747,8.43328632 9.97980202,8.86339406 9,8.97230373 L9,10.5 L11,10.5 C11.2761424,10.5 11.5,10.7238576 11.5,11 C11.5,11.2761424 11.2761424,11.5 11,11.5 L9,11.5 L9,13.5 L9,13.5 C9,13.7761424 8.77614237,14 8.5,14 C8.22385763,14 8,13.7761424 8,13.5 L8,11.5 L6,11.5 L6,11.5 C5.72385763,11.5 5.5,11.2761424 5.5,11 C5.5,10.7238576 5.72385763,10.5 6,10.5 L8,10.5 Z M10.9748737,6.97487373 C12.3417088,5.60803871 12.3417088,3.39196129 10.9748737,2.02512627 C9.60803871,0.658291245 7.39196129,0.658291245 6.02512627,2.02512627 C4.65829124,3.39196129 4.65829124,5.60803871 6.02512627,6.97487373 C7.39196129,8.34170876 9.60803871,8.34170876 10.9748737,6.97487373 Z" id="Combined-Shape-Copy-2" fill="#FF788B" transform="translate(8.500000, 7.000000) rotate(-180.000000) translate(-8.500000, -7.000000) "></path>
        </g>
    </g>
</svg>