<?xml version="1.0" encoding="UTF-8" standalone="no"?>
<svg width="18px" height="17px" viewBox="0 0 18 17" version="1.1" xmlns="http://www.w3.org/2000/svg" xmlns:xlink="http://www.w3.org/1999/xlink">
    <!-- Generator: Sketch 44.1 (41455) - http://www.bohemiancoding.com/sketch -->
    <title>i-list1</title>
    <desc>Created with Sketch.</desc>
    <defs></defs>
    <g id="Page-3" stroke="none" stroke-width="1" fill="none" fill-rule="evenodd">
        <g id="01-患者列表-更多" transform="translate(-1194.000000, -71.000000)" fill="#3ED086">
            <path d="M1200,71.5 C1200,71.2238576 1200.229,71 1200.50035,71 L1211.49965,71 C1211.77599,71 1212,71.2319336 1212,71.5 C1212,71.7761424 1211.771,72 1211.49965,72 L1200.50035,72 C1200.22401,72 1200,71.7680664 1200,71.5 Z M1200,79.5 C1200,79.2238576 1200.229,79 1200.50035,79 L1211.49965,79 C1211.77599,79 1212,79.2319336 1212,79.5 C1212,79.7761424 1211.771,80 1211.49965,80 L1200.50035,80 C1200.22401,80 1200,79.7680664 1200,79.5 Z M1200,87.5 C1200,87.2238576 1200.229,87 1200.50035,87 L1211.49965,87 C1211.77599,87 1212,87.2319336 1212,87.5 C1212,87.7761424 1211.771,88 1211.49965,88 L1200.50035,88 C1200.22401,88 1200,87.7680664 1200,87.5 Z M1194,71.5 C1194,71.2238576 1194.21506,71 1194.49048,71 L1197.50952,71 C1197.78041,71 1198,71.2319336 1198,71.5 C1198,71.7761424 1197.78494,72 1197.50952,72 L1194.49048,72 C1194.21959,72 1194,71.7680664 1194,71.5 Z M1194,79.5 C1194,79.2238576 1194.21506,79 1194.49048,79 L1197.50952,79 C1197.78041,79 1198,79.2319336 1198,79.5 C1198,79.7761424 1197.78494,80 1197.50952,80 L1194.49048,80 C1194.21959,80 1194,79.7680664 1194,79.5 Z M1194,87.5 C1194,87.2238576 1194.21506,87 1194.49048,87 L1197.50952,87 C1197.78041,87 1198,87.2319336 1198,87.5 C1198,87.7761424 1197.78494,88 1197.50952,88 L1194.49048,88 C1194.21959,88 1194,87.7680664 1194,87.5 Z" id="i-list1"></path>
        </g>
    </g>
</svg>