<?xml version="1.0" encoding="UTF-8" standalone="no"?>
<svg width="18px" height="18px" viewBox="0 0 18 18" version="1.1" xmlns="http://www.w3.org/2000/svg" xmlns:xlink="http://www.w3.org/1999/xlink">
    <!-- Generator: Sketch 44.1 (41455) - http://www.bohemiancoding.com/sketch -->
    <title>i-card</title>
    <desc>Created with Sketch.</desc>
    <defs></defs>
    <g id="Page-3" stroke="none" stroke-width="1" fill="none" fill-rule="evenodd">
        <g id="01-患者列表-1" transform="translate(-1194.000000, -71.000000)" stroke="#3ED086">
            <path d="M1194.5,72.0011292 L1194.5,77.1988708 C1194.5,77.4743828 1194.72528,77.7 1195.00113,77.7 L1200.19887,77.7 C1200.47438,77.7 1200.7,77.4747203 1200.7,77.1988708 L1200.7,72.0011292 C1200.7,71.7256172 1200.47472,71.5 1200.19887,71.5 L1195.00113,71.5 C1194.72562,71.5 1194.5,71.7252797 1194.5,72.0011292 Z M1194.5,82.8011292 L1194.5,87.9988708 C1194.5,88.2743828 1194.72528,88.5 1195.00113,88.5 L1200.19887,88.5 C1200.47438,88.5 1200.7,88.2747203 1200.7,87.9988708 L1200.7,82.8011292 C1200.7,82.5256172 1200.47472,82.3 1200.19887,82.3 L1195.00113,82.3 C1194.72562,82.3 1194.5,82.5252797 1194.5,82.8011292 Z M1205.3,72.0011292 L1205.3,77.1988708 C1205.3,77.4743828 1205.52528,77.7 1205.80113,77.7 L1210.99887,77.7 C1211.27438,77.7 1211.5,77.4747203 1211.5,77.1988708 L1211.5,72.0011292 C1211.5,71.7256172 1211.27472,71.5 1210.99887,71.5 L1205.80113,71.5 C1205.52562,71.5 1205.3,71.7252797 1205.3,72.0011292 Z M1205.3,82.8011292 L1205.3,87.9988708 C1205.3,88.2743828 1205.52528,88.5 1205.80113,88.5 L1210.99887,88.5 C1211.27438,88.5 1211.5,88.2747203 1211.5,87.9988708 L1211.5,82.8011292 C1211.5,82.5256172 1211.27472,82.3 1210.99887,82.3 L1205.80113,82.3 C1205.52562,82.3 1205.3,82.5252797 1205.3,82.8011292 Z" id="i-card"></path>
        </g>
    </g>
</svg>