<?xml version="1.0" encoding="UTF-8" standalone="no"?>
<svg width="16px" height="19px" viewBox="0 0 16 19" version="1.1" xmlns="http://www.w3.org/2000/svg" xmlns:xlink="http://www.w3.org/1999/xlink">
    <!-- Generator: Sketch 44.1 (41455) - http://www.bohemiancoding.com/sketch -->
    <title>i-1</title>
    <desc>Created with Sketch.</desc>
    <defs></defs>
    <g id="Page-3" stroke="none" stroke-width="1" fill="none" fill-rule="evenodd">
        <g id="01-患者列表-1" transform="translate(-1247.000000, -70.000000)" fill-rule="nonzero" fill="#3ED086">
            <path d="M1255.03445,73.770101 C1255.02307,73.7708756 1255.01158,73.7712692 1255,73.7712692 C1251.13401,73.7712692 1248,76.905276 1248,80.7712692 C1248,84.6372625 1251.13401,87.7712692 1255,87.7712692 C1258.86599,87.7712692 1262,84.6372625 1262,80.7712692 C1262,80.4951269 1262.22386,80.2712692 1262.5,80.2712692 C1262.77614,80.2712692 1263,80.4951269 1263,80.7712692 C1263,85.1895472 1259.41828,88.7712692 1255,88.7712692 C1250.58172,88.7712692 1247,85.1895472 1247,80.7712692 C1247,76.3799012 1250.53823,72.81493 1254.91936,72.7716672 L1253.00125,70.8535534 C1252.80599,70.6582912 1252.80599,70.3417088 1253.00125,70.1464466 C1253.19651,69.9511845 1253.51309,69.9511845 1253.70836,70.1464466 L1256.89034,73.3284271 L1253.70836,76.5104076 C1253.51309,76.7056698 1253.19651,76.7056698 1253.00125,76.5104076 C1252.80599,76.3151455 1252.80599,75.998563 1253.00125,75.8033009 L1255.03445,73.770101 Z" id="i-1"></path>
        </g>
    </g>
</svg>